<?xml version="1.0" encoding="utf-8"?>
<!-- Generator: Adobe Illustrator 25.2.0, SVG Export Plug-In . SVG Version: 6.00 Build 0)  -->
<svg version="1.1" id="Layer_1" xmlns="http://www.w3.org/2000/svg" xmlns:xlink="http://www.w3.org/1999/xlink" x="0px" y="0px"
	 viewBox="0 0 1000 1000" style="enable-background:new 0 0 1000 1000;" xml:space="preserve">
<style type="text/css">
	.st0{fill:#F5C842;stroke:#F5C842;stroke-width:20;stroke-miterlimit:10;}
	.st1{fill:#F5C842;}
</style>
<g>
	<path class="st0" d="M620.18,363.58c-3.48-12.65-7.68-24.44-13.89-35.5c-26.87-47.86-81.28-72.35-135.23-60.68
		c-53.82,11.65-93.2,55.96-97.63,110.72c-2.63,32.52,6.27,62.02,27.52,86.83c27.22,31.78,55.41,62.72,83.06,94.12
		c2.55,2.89,5.01,3.07,8.56,2.64c20.16-2.47,39.59,11.61,43.04,30.85c3.65,20.33-8.37,39.78-27.8,44.97
		c-19.9,5.32-40.71-5.72-47.22-24.98c-2.91-8.63-2.64-17.29,0.8-25.5c1.73-4.15,0.75-5.95-2.41-8.45
		c-25.63-20.28-50.99-40.91-76.68-61.12c-64.54-50.78-83.98-134.73-47.55-208.53c27.5-55.72,72.44-88.95,133.41-99.64
		c81.11-14.22,163.06,30.49,195.39,105.7c1.15,2.66,2.17,4.77-0.64,7.47c-13.52,12.98-26.79,26.23-40.16,39.37
		C622.21,362.41,621.44,362.76,620.18,363.58z"/>
	<path class="st0" d="M379.82,636.42c3.48,12.65,7.68,24.44,13.89,35.5c26.87,47.86,81.28,72.35,135.23,60.68
		c53.82-11.65,93.2-55.96,97.63-110.72c2.63-32.52-6.27-62.02-27.52-86.83c-27.22-31.78-55.41-62.72-83.06-94.12
		c-2.55-2.89-5.01-3.07-8.56-2.64c-20.16,2.47-39.59-11.61-43.04-30.85c-3.65-20.33,8.37-39.78,27.8-44.97
		c19.9-5.32,40.71,5.72,47.22,24.98c2.91,8.63,2.64,17.29-0.8,25.5c-1.73,4.15-0.75,5.95,2.41,8.45
		c25.63,20.28,50.99,40.91,76.68,61.12c64.54,50.78,83.98,134.73,47.55,208.53c-27.5,55.72-72.44,88.95-133.41,99.64
		c-81.11,14.22-163.06-30.49-195.39-105.7c-1.15-2.66-2.17-4.77,0.64-7.47c13.52-12.98,26.79-26.23,40.16-39.37
		C377.79,637.59,378.56,637.24,379.82,636.42z"/>
</g>
</svg>
