<?xml version="1.0" encoding="utf-8"?>
<!-- Generator: Adobe Illustrator 25.2.0, SVG Export Plug-In . SVG Version: 6.00 Build 0)  -->
<svg version="1.1" id="Layer_1" xmlns="http://www.w3.org/2000/svg" xmlns:xlink="http://www.w3.org/1999/xlink" x="0px" y="0px"
	 viewBox="0 0 792 130" style="enable-background:new 0 0 792 130;" xml:space="preserve">
<style type="text/css">
	.st0{fill:#F5C842;stroke:#F5C842;stroke-width:20;stroke-miterlimit:10;}
	.st1{fill:#F5C842;}
</style>
<g>
	<path class="st1" d="M508.88,67.75c0-17.93,0.08-35.86-0.07-53.79c-0.03-3.28,0.87-4.24,4.18-4.22
		c25.61,0.12,51.23,0.11,76.84-0.05c3.42-0.02,4.34,1.09,4.13,4.29c-0.26,4.07-0.36,8.19-0.08,12.26c0.23,3.37-0.94,4.2-4.2,4.17
		c-17.13-0.13-34.26,0.09-51.38-0.08c-3.61-0.03-4.92,0.74-4.7,4.59c0.34,5.96,0.23,11.96-0.03,17.92
		c-0.14,3.26,0.77,4.27,4.14,4.24c15.08-0.17,30.17,0.07,45.25-0.13c3.63-0.05,4.66,1.02,4.37,4.5c-0.31,3.75-0.38,7.57-0.04,11.31
		c0.34,3.77-1.22,4.37-4.57,4.33c-14.61-0.17-29.23,0.03-43.84-0.14c-3.88-0.05-5.65,0.74-5.37,5.15
		c0.41,6.26,0.29,12.58,0.02,18.86c-0.14,3.31,0.82,4.23,4.16,4.2c17.75-0.18,35.51,0,53.27-0.22c3.94-0.05,5.24,1.09,4.9,4.98
		c-0.33,3.75-0.34,7.56-0.03,11.31c0.3,3.66-1.09,4.42-4.53,4.4c-22.16-0.13-44.31-0.05-66.47-0.03c-3.93,0-7.87-0.17-11.78,0.11
		c-3.29,0.23-4.25-0.85-4.22-4.18C508.96,103.61,508.88,85.68,508.88,67.75z"/>
	<path class="st1" d="M45.84,127.13c-14.69-0.02-28.6-3.01-41.48-10.45c-2.99-1.73-4.11-3.16-2.29-6.49
		c2.17-3.98,3.96-8.18,5.66-12.39c1.23-3.05,2.45-3.56,5.31-1.5c10.71,7.69,22.91,10.66,35.94,10.52c5.39-0.06,10.65-0.98,15.29-4
		c6.92-4.51,6.99-13.41,0.11-18c-4.25-2.84-9.13-4.07-14.03-5.23c-8.24-1.96-16.49-3.9-24.48-6.72C13.23,68.4,4.18,60.47,3.35,46.28
		C2.5,31.92,8.69,21,21.64,14.39c16.16-8.25,33.04-7.51,50.09-3.5c4.74,1.12,9.25,2.93,13.7,4.96c3.33,1.52,4.46,3.15,2.59,6.7
		c-1.9,3.6-3.46,7.42-4.74,11.29c-1.04,3.15-2.16,3.61-5.24,2.08c-11.15-5.56-22.89-8.49-35.47-6.59c-0.47,0.07-0.94,0.09-1.4,0.19
		c-8.01,1.66-12.48,5.73-12.86,11.7c-0.39,5.97,2.83,10,11.15,12.57c8.38,2.58,16.99,4.43,25.43,6.81c3.91,1.1,7.8,2.42,11.48,4.14
		c10.28,4.79,16.88,12.56,17.59,24.22c0.75,12.31-3.5,22.5-13.96,29.64C69.66,125.65,57.96,127.22,45.84,127.13z"/>
	<path class="st1" d="M129.8,46.13c12.3-10.69,25.56-13.23,40.1-8.86c14.15,4.25,23.1,16.45,23.49,32.86
		c0.41,17.29,0.03,34.59,0.16,51.89c0.02,3.03-1.05,3.7-3.82,3.6c-5.18-0.19-10.38-0.24-15.55,0.05c-3.44,0.19-4.57-0.71-4.51-4.37
		c0.23-13.83,0.08-27.67,0.08-41.51c0-0.79,0.02-1.57,0.01-2.36c-0.16-13.64-6.08-20.24-18.46-20.56
		c-12.14-0.31-21.15,8.16-21.44,20.78c-0.29,12.89-0.05,25.79-0.06,38.68c-0.01,9.23-0.03,9.23-9.34,9.29
		c-3.46,0.02-6.93-0.19-10.36,0.08c-3.29,0.25-4.26-0.89-4.23-4.2c0.14-15.09,0-30.19,0.01-45.29c0-23.12,0.1-46.23-0.01-69.35
		c-0.02-3.37,0.67-4.8,4.37-4.57c5.32,0.33,10.69,0.26,16.02,0.01c3.07-0.14,3.62,1.07,3.6,3.82
		C129.73,19.17,129.8,32.22,129.8,46.13z"/>
	<path class="st1" d="M443.15,50.51c-13.95-17.11-37.84-21.73-58.48-11.56c-18.32,9.02-27.97,30.68-23.11,51.84
		c7.81,33.96,52.93,48.7,79.99,26.13c4.78-3.98,4.78-3.98,0.5-8.74c-2.2-2.46-4.52-4.81-6.57-7.39c-1.45-1.82-2.47-2.06-4.41-0.49
		c-6.52,5.3-14.19,7.03-22.48,6.72c-12.23-0.46-21.64-8.28-23.51-20.03h4.69c19.47-0.03,38.95-0.05,58.42-0.12
		c1.53-0.01,3.62,0.79,3.78-2.09C452.7,72.4,451.3,60.49,443.15,50.51z M426.13,72.07c-6.26-0.19-12.54-0.06-18.81-0.06
		c0-0.01,0-0.01,0-0.02c-6.58,0-13.17,0.01-19.75-0.01c-1.52,0-3.05,0.43-2.47-2.38c1.93-9.52,10.58-16.59,21.04-16.78
		c11.64-0.21,20.17,5.93,22.51,15.98C429.22,71.26,428.9,72.14,426.13,72.07z"/>
	<path class="st1" d="M287.95,69.48c-0.41-18.89-11.17-31.04-29.8-34.47c-14.82-2.72-29.09-0.91-42.61,5.77
		c-8.31,4.1-7.06,2.39-3.66,9.87c1.17,2.56,2.59,5.02,3.59,7.66c1.01,2.66,2.21,2.58,4.46,1.29c7.49-4.28,15.62-6.52,24.28-6.3
		c10.75,0.27,17.36,4.81,19.05,12.76c1.23,5.82,1.02,6-4.93,6.01c-10.19,0.02-20.43-1.07-30.55,0.93
		c-13,2.56-21.59,11.38-22.29,22.69c-0.91,14.52,5.78,25.23,19.26,29.15c14.61,4.24,28.57,3.51,40.35-9.34
		c0,2.44,0.19,4.12-0.04,5.74c-0.51,3.6,0.95,4.64,4.46,4.44c5-0.3,10.05-0.31,15.07-0.04c3.13,0.17,3.62-1.14,3.61-3.82
		C288.06,104.39,288.33,86.92,287.95,69.48z M241.65,109.97c-2.61-0.06-7.41-0.76-10.7-5.06c-5.26-6.9-1.12-16.5,8.02-17.51
		c7.45-0.81,15.04-0.29,22.57-0.46c2.41-0.05,2.23,1.47,2.31,3.11C264.56,102.75,257.38,109.98,241.65,109.97z"/>
	<path class="st1" d="M686.11,69.74c-0.11-17.46-9.17-29.79-25.71-33.87c-17.44-4.3-34.27-2.05-50.08,6.81
		c-2,1.12-2.75,2.09-1.51,4.37c1.93,3.58,3.63,7.31,5.19,11.07c1.05,2.52,2.12,2.73,4.47,1.33c7.75-4.63,16.31-6.37,25.27-6.13
		c8.76,0.24,15,4.14,17.3,10.61c2.57,7.24,1.77,8.35-5.85,8.09c-1.26-0.04-2.51-0.14-3.77-0.13c-10.17,0.11-20.41-0.93-30.31,2.63
		c-9.83,3.53-15.63,10.3-16.83,20.64c-1.24,10.62,1.98,19.64,11.1,25.81c14.49,9.81,34.63,7.59,48.3-5.58c0,2.44,0.2,4.18-0.04,5.85
		c-0.53,3.62,0.93,4.7,4.44,4.47c4.54-0.29,9.13-0.41,13.65-0.08c3.66,0.26,4.46-1.07,4.43-4.48
		C686.03,104.02,686.22,86.88,686.11,69.74z M662.19,95.3c-0.6,5.3-3.16,9.55-7.99,12.05c-6.33,3.27-13.02,3.49-19.64,1.25
		c-4.57-1.56-7-5.16-7.13-10.07c-0.13-4.84,2.59-8.71,7.26-10.48c4.85-1.82,9.95-0.81,14.16-1.16c2.49,0,4.22-0.01,5.95,0.01
		C663.03,86.97,663.12,86.99,662.19,95.3z"/>
	<path class="st1" d="M730.92,77.94c0,5.34-0.05,10.68,0.01,16.02c0.12,11.33,6.11,15.84,16.86,11.91c4.42-1.62,5.65-0.37,6.57,3.47
		c0.51,2.12,1.55,4.1,2.35,6.15c2.53,6.53,2.55,6.59-4.29,8.93c-8.06,2.76-16.29,3.26-24.57,1.19
		c-12.97-3.25-20.3-12.76-20.52-26.88c-0.19-12.72-0.21-25.45-0.07-38.17c0.04-3.36-0.67-4.64-4.36-4.59
		c-9.27,0.12-9.27-0.08-9.17-9.4c0.1-9.25,0.1-9.39,9.34-9.22c3.24,0.06,4.44-0.74,4.24-4.14c-0.28-4.85,0.03-9.74-0.06-14.61
		c-0.04-2.28,0.43-3.45,3.1-3.36c5.8,0.19,11.62,0.19,17.42,0.01c2.6-0.08,3.17,0.93,3.1,3.29c-0.13,5.18,0.07,10.37-0.06,15.55
		c-0.06,2.45,0.82,3.34,3.26,3.27c5.18-0.14,10.37,0.08,15.54-0.17c3.17-0.15,4.09,1.02,3.89,4.06c-0.24,3.76-0.28,7.55,0.01,11.3
		c0.24,3.13-1.08,3.66-3.79,3.55c-4.7-0.19-9.44,0.24-14.12-0.15c-4.11-0.34-5.03,1.23-4.83,5.01c0.31,5.64,0.08,11.31,0.08,16.96
		C730.89,77.94,730.91,77.94,730.92,77.94z"/>
	<path class="st1" d="M304.48,95.35c0-7.7-0.01-15.39,0-23.09c0.04-25.24,20.2-42.15,45.06-37.82c13.62,2.37,13.79,2.67,8.54,14.99
		c-0.43,1.01-1.01,1.98-1.26,3.03c-0.76,3.24-2.23,3.88-5.67,3.06c-13.09-3.14-23.04,5.19-23.17,19.2
		c-0.14,14.92-0.03,29.84-0.05,44.76c-0.01,6.1-0.02,6.1-6.35,6.12c-4.55,0.01-9.1-0.11-13.65,0.07c-2.64,0.1-3.53-0.74-3.48-3.46
		c0.16-8.95,0.06-17.9,0.06-26.85C304.5,95.35,304.49,95.35,304.48,95.35z"/>
	<path class="st1" d="M779.42,9.33c2.51,0,5.05,0.21,7.54-0.05c3.69-0.39,3.99,1.47,3.81,4.47c-1.25,21.01-2.37,42.02-3.54,63.03
		c-0.25,4.54-0.52,9.08-0.84,13.62c-0.07,0.99,0.35,2.54-1.23,2.61c-3.92,0.19-7.85,0.26-11.77,0.16c-1.85-0.05-1.38-1.75-1.44-2.92
		c-0.88-16.47-1.72-32.95-2.64-49.42c-0.48-8.62-1.01-17.23-1.67-25.84c-0.44-5.74-0.51-5.79,5.19-5.79c2.2,0,4.4,0,6.6,0
		C779.42,9.24,779.42,9.29,779.42,9.33z"/>
	<path class="st1" d="M790.51,114.88c-0.04,6.6-4.66,11.15-11.36,11.18c-6.44,0.02-11.56-4.89-11.58-11.11
		c-0.02-6.26,5.06-11.46,11.25-11.53C785.53,103.35,790.55,108.26,790.51,114.88z"/>
</g>
</svg>
